# xmcd
#
# Track frame offsets: 
#        150
#        26701
#        50648
#        71304
#        95295
#        117302
#        137069
#        157413
#        182354
#        207097
#
# Disc length: 3132 seconds
#
# Revision: 0
# Processed by: cddbd v1.5.2PL0 Copyright (c) Steve Scherf et al.
# Submitted via: ExactAudioCopy v1.0b3
#
DISCID=890c3a0a
DTITLE=Che Linh, Huong Lan - Loi Ve Dat Me
DYEAR=1997
DGENRE=
TTITLE0=Huong Lan - Ve tham dat Me (Loi ve dat Me)
TTITLE1=Che Linh - Tinh chet theo mua dong
TTITLE2=Huong Lan - Gap nhau
TTITLE3=Che Linh - Neu mot ngay
TTITLE4=Huong Lan - Danh quen sao
TTITLE5=Che Linh - Anh den tham em dem 30
TTITLE6=Huong Lan - Co hang xom
TTITLE7=Che Linh - Chuyen tinh buon
TTITLE8=Huong Lan - Hoi nguoi con nho den ta
TTITLE9=Che Linh - Tra lai em yeu
EXTD=
EXTT0=
EXTT1=
EXTT2=
EXTT3=
EXTT4=
EXTT5=
EXTT6=
EXTT7=
EXTT8=
EXTT9=
PLAYORDER=
